<svg id="Layer_1" data-name="Layer 1" xmlns="http://www.w3.org/2000/svg" viewBox="0 0 151.99 240.44"><polygon points="33.17 16.33 12 28.67 3.68 33.52 3.68 0 33.17 16.33" fill="#60439a"/><polygon points="150.56 134.48 95.14 166.8 95.14 103.8 150.56 134.48" fill="#6050a1"/><polygon points="79.2 14.42 79.2 71.88 31.85 45.67 28.64 43.89 31.85 42.02 79.2 14.42" fill="#2f2561"/><polygon points="151.99 67.23 151.99 130.32 96.48 99.6 151.99 67.23" fill="#8259a5"/><polygon points="87.78 172.09 79.2 177.09 31.85 204.7 31.85 140.45 79.2 167.25 81.03 168.29 87.78 172.09" fill="#60439a"/><polygon points="12 53.59 12 67.23 3.68 62.62 0 60.59 3.68 58.44 12 53.59" fill="#8259a5"/><polygon points="91.1 102.73 91.1 169.15 90.74 169.36 79.2 162.97 32.32 137.01 79.2 109.67 91.1 102.73" fill="#706ab0"/><polygon points="150.36 63.46 95.14 95.66 95.14 32.89 150.36 63.46" fill="#704fa0"/><polygon points="91.1 174.73 91.1 240.44 33.29 208.43 79.2 181.67 91.1 174.73" fill="#2f2561"/></svg>