<svg id="Layer_1" data-name="Layer 1" xmlns="http://www.w3.org/2000/svg" viewBox="0 0 290.09 146.73"><path d="M295.33,427.34c0,9.9-2.93,17.68-8.45,23.39-7.48,7.94-19.63,12-33.43,12a48,48,0,0,1-11.36-1v43.84l-14.62-8.25V432.89l14.62,8.28v9.07a47.88,47.88,0,0,0,11.67,1.13c17.06,0,27.44-8.27,27.44-23.38,0-14.45-10.23-21.43-25.8-21.43-6.19,0-10.89.48-13.31,1.13V419l-14.62-8.28V395.35c7.07.18,16.24,0,27.6,0,13.95,0,24.18,3.27,30.68,9.1C291.76,409.64,295.33,417.6,295.33,427.34Z" transform="translate(-227.47 -358.85)" fill="#231f20"/><path d="M327.14,373.46c.17,4.87-3.41,8.77-9.09,8.77a8.5,8.5,0,0,1-8.6-8.77,8.7,8.7,0,0,1,8.93-8.92C323.73,364.54,327.14,368.43,327.14,373.46Zm-15.9,100.65V395.54h14.28v78.57Z" transform="translate(-227.47 -358.85)" fill="#231f20"/><path d="M389.33,440.84l-7.68,11.08c2,3.34-.33.16,1.91,3.47l11.51,17.71h16.24ZM356.6,394.52H340.69l21,30.2L369.15,414c-1.8-3,.71.51-1.35-2.57Z" transform="translate(-227.47 -358.85)" fill="#231f20"/><path d="M452.62,427.19h19.17c.15-9.1-3.75-23.2-19.81-23.2-13,0-19.48,10.84-21.43,20.24a25.34,25.34,0,0,0-.49,3h5.83l18.43,10.23H429.91c.3,19.32,12.66,27.29,26.93,27.29,10.22,0,16.42-1.8,21.76-4.06L481,470.87c-5,2.26-13.64,4.86-26.13,4.86-24.21,0-38.65-15.91-38.65-39.6s13.95-42.37,36.85-42.37c25.64,0,32.48,22.56,32.48,37a54.32,54.32,0,0,1-.49,6.66H471.05Z" transform="translate(-227.47 -358.85)" fill="#231f20"/><path d="M503.28,358.85h14.28V474.11H503.28Z" transform="translate(-227.47 -358.85)" fill="#231f20"/><polygon points="180.59 36.68 108.95 146.73 91.89 146.73 163.53 36.68 180.59 36.68" fill="#231f20"/></svg>